<svg version="1.0" xmlns="http://www.w3.org/2000/svg" width="533.333" height="533.333" viewBox="0 0 400 400"><path d="M66 199.4v199.4l2.5.4c1.4.3 2.5.2 2.5-.3 0-.4 1.4-.4 3 .1 1.7.5 3 .6 3 .2 0-.4 5.4-.5 12-.2s12 .2 12-.2 1.4-.3 3 .2c1.7.5 3 .5 3 0s1.3-.5 3 0 3 .5 3 0 1.3-.5 3 0 3 .5 3 0 1.3-.5 3 0 3 .5 3 .1c0-.5 1.8-.5 4-.1s4 .4 4-.1c0-.4 1.4-.4 3 .1 1.7.5 3 .5 3 0s1.3-.5 3 0 3 .5 3 0 1.3-.5 3 0 3 .5 3 0 1.3-.5 3 0 3 .6 3 .2c0-.4 5.4-.5 12-.2s12 .2 12-.2 1.4-.3 3 .2c1.7.5 3 .5 3 0s1.3-.5 3 0 3 .5 3 0 1.3-.5 3 0 3 .5 3 0 1.3-.5 3 0c1.6.5 3 .6 3 .2 0-.4 5.4-.5 12-.2s12 .2 12-.2 1.3-.3 3 .2 3 .5 3 0 1.3-.5 3 0 3 .5 3 0 1.3-.5 3 0 3 .5 3 0 1.3-.5 3 0c1.6.5 3 .5 3 .1 0-.5 1.8-.5 4-.1s4 .4 4-.1c0-.4 1.3-.4 3 .1s3 .5 3 .1 2.3-.5 5-.1c2.8.4 5 .3 5-.1s1.3-.4 3 .1c2.1.6 3 .5 3-.3 0-.7.4-.6 1 .3.5.8 1 1 1 .3 0-.6.8-.9 1.9-.6 1.7.4 1.8-.3 1.9-8.6 0-6.2-.4-9.1-1.2-9.1-.7 0-.7-.3.1-.8.9-.6 1.2-4.1 1-12.5-.1-6.4.2-11.7.6-11.7.5 0 .6-.3.4-.8-.3-.4 9.3-.7 21.4-.7l21.9.1v-12.1c.1-10.5 0-228.7 0-280.1v-19h-22c-18.9.1-22-.1-22.1-1.4 0-.8-.1-6.8 0-13.3 0-8.3-.4-11.7-1.2-11.7-.9 0-.9-.2 0-.8.7-.4 1.1-3.5 1-8.5l-.1-7.7H66v199.4zm95.5-110.9c.6.1 1.5-.3 2.2-.7.6-.5 1.4-.4 1.8.2.5.8 1.1.8 2.1-.1.9-.7 1.4-.8 1.4-.1 0 1.1 1.8 1.1 3.8-.1.6-.5 1.2-.4 1.2.1 0 .9 4.7.8 5.7-.2.3-.3 1.4-.1 2.5.5 1.3.7 2.3.7 3.2 0 .7-.6 1.6-.8 2-.4 1.1 1.1 3.6 1.2 3.6.2 0-.6.8-.5 2 .1 1.4.8 2 .8 2 0 0-.6.5-.8 1.2-.4 1.9 1.2 4.8 1.2 4.8 0 0-.7.3-.7.8-.1.8 1.2 9.2 1.4 9.2.2 0-.5.6-.5 1.3 0 1.7 1.1 4.1 1 4.9-.2.5-.6.8-.6.8.1 0 1.1 5.2 1 7.1-.1.5-.4.9-.2.9.2 0 .5 1.1.9 2.5.9s2.5-.4 2.5-.9.6-.5 1.3.1c.8.7 1.8.7 2.7.2.8-.5 2.1-.5 3 0 1.8 1 3.8.8 6-.4 1.2-.7 1.3-.6.3.4-.9 1-.9 1.7-.2 2.6.6.7.7 1.9.3 2.6-1.1 1.7-1.1 5.8-.1 5.8.4 0 .5.6.1 1.2-1 1.6-1 5 0 6.7.5.7.5 1.6 0 2-1.2.8-1.4 4.1-.3 4.1.6 0 .6.8 0 1.8-.7 1.3-.6 2.3.1 3 .9.9.9 1.2.1 1.2-1.2 0-1.2 1.8.1 3.9.5.7.5 1.6 0 2-1.2.8-1.2 6.1-.1 6.1.4 0 .5.6.1 1.2-1 1.6-1 5 0 6.7.5.7.5 1.6 0 2-1.2.8-1.4 4.1-.3 4.1.6 0 .6.8 0 1.8-.7 1.3-.6 2.3.1 3 .9.9.9 1.2.1 1.2-1.2 0-1.2 1.8.1 3.9.5.7.5 1.6 0 2-1.2.8-1.2 6.1-.1 6.1.4 0 .5.6.1 1.2-1 1.6-1 5 0 6.7.5.7.5 1.6 0 2-1.2.8-1.4 4.1-.3 4.1.6 0 .6.8 0 1.8-.7 1.3-.6 2.3.1 3 .9.9.9 1.2.1 1.2-1.2 0-1.2 1.8.1 3.9.5.7.5 1.6 0 2-1.2.8-1.2 6.1-.1 6.1.4 0 .5.6.1 1.2-1 1.6-1 5 0 6.7.5.7.5 1.6 0 2-1.2.8-1.4 4.1-.3 4.1.6 0 .6.8 0 1.8-.7 1.3-.6 2.3.1 3 .9.9.9 1.2.1 1.2-1.2 0-1.2 1.8.1 3.9.5.7.5 1.6 0 2-1.2.8-1.2 6.1-.1 6.1.4 0 .5.6.1 1.2-1 1.6-1 5 0 6.7.5.7.5 1.6 0 2-1.2.8-1.4 4.1-.3 4.1.6 0 .6.8 0 1.8-.7 1.3-.6 2.3.1 3 .9.9.9 1.2.1 1.2-1.3 0-1.2 1.8.2 3.9.5.9.5 1.6-.1 1.8-1 .3-1.1 6-.1 6.9.3.3.1 2.1-.3 4-.5 2-.4 3.4.2 3.4.5 0 .6.6.2 1.2-1 1.6-1 5 0 6.7.5.7.5 1.6 0 2-1.2.8-1.4 8.1-.2 8.1.5 0 .4.9-.2 1.9-.7 1.4-.7 2.2.1 2.7.8.4.7.9-.2 1.5-.9.5-1 .9-.3.9.8 0 1 1.1.5 3.2-.8 4.2-.7 6 .2 7.5.5.8.3 1.3-.4 1.3-.8 0-.8.4.1 1.5 1 1.2 1 1.5 0 1.5-.7 0-1 .6-.7 1.4.8 2.1 0 2.4-3.9 1.6-1.8-.4-3.4-.4-3.4.1 0 .4-1 .5-2.2 0-1.3-.4-3.5-.5-5 0-1.6.4-2.8.5-2.8.1s-1.3-.7-3-.7c-1.6 0-3 .3-3 .6 0 .4-1.5.3-3.4-.1-2.2-.5-3.9-.3-4.5.3-.6.6-1.1.7-1.1.1 0-.5-1.6-.9-3.5-.9s-3.5.3-3.5.7c0 .4-1 .4-2.2-.1-1.3-.4-3.5-.5-5 0-1.6.4-2.8.5-2.8.1s-3.2-.7-7-.7c-3.9 0-7 .3-7 .7 0 .4-1 .4-2.2-.1-1.3-.4-3.5-.5-5 0-1.6.4-2.8.5-2.8.1s-2.7-.7-6-.7-6 .4-6 .9-.6.3-1.4-.3c-1-.9-1.4-3.3-1.3-8.6.1-4.4-.2-7.5-.8-7.5-.7 0-.7-.3 0-.8.6-.4 1-2.1 1-3.7 0-1.7-.4-3.3-1-3.7-.6-.5-.6-.8.2-.8.9 0 1.1-1.8.3-4-.1-.3-.1-1.9 0-3.5.6-8.7.4-15.5-.5-15.5-.7 0-.7-.3 0-.8.6-.4 1-10.9 1-28 0-17.4-.4-27.2-1-27.2-.7 0-.7-.3 0-.8.6-.4 1-5.5 1-11.7 0-6.2-.4-11.3-1-11.7-.7-.5-.7-.8 0-.8s1-16.1.9-46.5c-.1-25.5.2-46.2.7-46 .4.3 1 .1 1.4-.5.4-.6 1.2-.7 1.8-.3.7.4 1.7.8 2.2.8z"/></svg>