<?xml version="1.0" standalone="no"?>
<!DOCTYPE svg PUBLIC "-//W3C//DTD SVG 20010904//EN"
 "http://www.w3.org/TR/2001/REC-SVG-20010904/DTD/svg10.dtd">
<svg version="1.0" xmlns="http://www.w3.org/2000/svg"
 width="400.000000pt" height="400.000000pt" viewBox="0 0 400.000000 400.000000"
 preserveAspectRatio="xMidYMid meet">
<metadata>
Created by potrace 1.11, written by Peter Selinger 2001-2013
</metadata>
<g transform="translate(0.000000,400.000000) scale(0.100000,-0.100000)"
fill="#000000" stroke="none">
<path d="M660 2006 l0 -1994 25 -4 c14 -3 25 -2 25 3 0 4 14 4 30 -1 17 -5 30
-6 30 -2 0 4 54 5 120 2 66 -3 120 -2 120 2 0 4 14 3 30 -2 17 -5 30 -5 30 0
0 5 13 5 30 0 17 -5 30 -5 30 0 0 5 13 5 30 0 17 -5 30 -5 30 0 0 5 13 5 30 0
17 -5 30 -5 30 -1 0 5 18 5 40 1 22 -4 40 -4 40 1 0 4 14 4 30 -1 17 -5 30 -5
30 0 0 5 13 5 30 0 17 -5 30 -5 30 0 0 5 13 5 30 0 17 -5 30 -5 30 0 0 5 13 5
30 0 17 -5 30 -6 30 -2 0 4 54 5 120 2 66 -3 120 -2 120 2 0 4 14 3 30 -2 17
-5 30 -5 30 0 0 5 13 5 30 0 17 -5 30 -5 30 0 0 5 13 5 30 0 17 -5 30 -5 30 0
0 5 13 5 30 0 16 -5 30 -6 30 -2 0 4 54 5 120 2 66 -3 120 -2 120 2 0 4 13 3
30 -2 17 -5 30 -5 30 0 0 5 13 5 30 0 17 -5 30 -5 30 0 0 5 13 5 30 0 17 -5
30 -5 30 0 0 5 13 5 30 0 16 -5 30 -5 30 -1 0 5 18 5 40 1 22 -4 40 -4 40 1 0
4 13 4 30 -1 17 -5 30 -5 30 -1 0 4 23 5 50 1 28 -4 50 -3 50 1 0 4 13 4 30
-1 21 -6 30 -5 30 3 0 7 4 6 10 -3 5 -8 10 -10 10 -3 0 6 8 9 19 6 17 -4 18 3
19 86 0 62 -4 91 -12 91 -7 0 -7 3 1 8 9 6 12 41 10 125 -1 64 2 117 6 117 5
0 6 3 4 8 -3 4 93 7 214 7 l219 -1 0 121 c1 105 0 2287 0 2801 l0 190 -220 0
c-189 -1 -220 1 -221 14 0 8 -1 68 0 133 0 83 -4 117 -12 117 -9 0 -9 2 0 8 7
4 11 35 10 85 l-1 77 -1113 0 -1113 0 0 -1994z m955 1109 c6 -1 15 3 22 7 6 5
14 4 18 -2 5 -8 11 -8 21 1 9 7 14 8 14 1 0 -11 18 -11 38 1 6 5 12 4 12 -1 0
-9 47 -8 57 2 3 3 14 1 25 -5 13 -7 23 -7 32 0 7 6 16 8 20 4 11 -11 36 -12
36 -2 0 6 8 5 20 -1 14 -8 20 -8 20 0 0 6 5 8 12 4 19 -12 48 -12 48 0 0 7 3
7 8 1 8 -12 92 -14 92 -2 0 5 6 5 13 0 17 -11 41 -10 49 2 5 6 8 6 8 -1 0 -11
52 -10 71 1 5 4 9 2 9 -2 0 -5 11 -9 25 -9 14 0 25 4 25 9 0 5 6 5 13 -1 8 -7
18 -7 27 -2 8 5 21 5 30 0 18 -10 38 -8 60 4 12 7 13 6 3 -4 -9 -10 -9 -17 -2
-26 6 -7 7 -19 3 -26 -11 -17 -11 -58 -1 -58 4 0 5 -6 1 -12 -10 -16 -10 -50
0 -67 5 -7 5 -16 0 -20 -12 -8 -14 -41 -3 -41 6 0 6 -8 0 -18 -7 -13 -6 -23 1
-30 9 -9 9 -12 1 -12 -12 0 -12 -18 1 -39 5 -7 5 -16 0 -20 -12 -8 -12 -61 -1
-61 4 0 5 -6 1 -12 -10 -16 -10 -50 0 -67 5 -7 5 -16 0 -20 -12 -8 -14 -41 -3
-41 6 0 6 -8 0 -18 -7 -13 -6 -23 1 -30 9 -9 9 -12 1 -12 -12 0 -12 -18 1 -39
5 -7 5 -16 0 -20 -12 -8 -12 -61 -1 -61 4 0 5 -6 1 -12 -10 -16 -10 -50 0 -67
5 -7 5 -16 0 -20 -12 -8 -14 -41 -3 -41 6 0 6 -8 0 -18 -7 -13 -6 -23 1 -30 9
-9 9 -12 1 -12 -12 0 -12 -18 1 -39 5 -7 5 -16 0 -20 -12 -8 -12 -61 -1 -61 4
0 5 -6 1 -12 -10 -16 -10 -50 0 -67 5 -7 5 -16 0 -20 -12 -8 -14 -41 -3 -41 6
0 6 -8 0 -18 -7 -13 -6 -23 1 -30 9 -9 9 -12 1 -12 -12 0 -12 -18 1 -39 5 -7
5 -16 0 -20 -12 -8 -12 -61 -1 -61 4 0 5 -6 1 -12 -10 -16 -10 -50 0 -67 5 -7
5 -16 0 -20 -12 -8 -14 -41 -3 -41 6 0 6 -8 0 -18 -7 -13 -6 -23 1 -30 9 -9 9
-12 1 -12 -13 0 -12 -18 2 -39 5 -9 5 -16 -1 -18 -10 -3 -11 -60 -1 -69 3 -3
1 -21 -3 -40 -5 -20 -4 -34 2 -34 5 0 6 -6 2 -12 -10 -16 -10 -50 0 -67 5 -7
5 -16 0 -20 -12 -8 -14 -81 -2 -81 5 0 4 -9 -2 -19 -7 -14 -7 -22 1 -27 8 -4
7 -9 -2 -15 -9 -5 -10 -9 -3 -9 8 0 10 -11 5 -32 -8 -42 -7 -60 2 -75 5 -8 3
-13 -4 -13 -8 0 -8 -4 1 -15 10 -12 10 -15 0 -15 -7 0 -10 -6 -7 -14 8 -21 0
-24 -39 -16 -18 4 -34 4 -34 -1 0 -4 -10 -5 -22 0 -13 4 -35 5 -50 0 -16 -4
-28 -5 -28 -1 0 4 -13 7 -30 7 -16 0 -30 -3 -30 -6 0 -4 -15 -3 -34 1 -22 5
-39 3 -45 -3 -6 -6 -11 -7 -11 -1 0 5 -16 9 -35 9 -19 0 -35 -3 -35 -7 0 -4
-10 -4 -22 1 -13 4 -35 5 -50 0 -16 -4 -28 -5 -28 -1 0 4 -32 7 -70 7 -39 0
-70 -3 -70 -7 0 -4 -10 -4 -22 1 -13 4 -35 5 -50 0 -16 -4 -28 -5 -28 -1 0 4
-27 7 -60 7 -33 0 -60 -4 -60 -9 0 -5 -6 -3 -14 3 -10 9 -14 33 -13 86 1 44
-2 75 -8 75 -7 0 -7 3 0 8 6 4 10 21 10 37 0 17 -4 33 -10 37 -6 5 -6 8 2 8 9
0 11 18 3 40 -1 3 -1 19 0 35 6 87 4 155 -5 155 -7 0 -7 3 0 8 6 4 10 109 10
280 0 174 -4 272 -10 272 -7 0 -7 3 0 8 6 4 10 55 10 117 0 62 -4 113 -10 117
-7 5 -7 8 0 8 7 0 10 161 9 465 -1 255 2 462 7 460 4 -3 10 -1 14 5 4 6 12 7
18 3 7 -4 17 -8 22 -8z"/>
</g>
</svg>
